<svg xmlns="http://www.w3.org/2000/svg"  shape-rendering="crispEdges" xmlns:xlink="http://www.w3.org/1999/xlink" width="2.814in" height="2.5095in" viewBox="142.5 247 268 239"><rect x="142.5" y="247" width="268" height="239" fill="#FFFFFF" />     <text x="178.5" y="345" font-family="Times New Roman,msyh" font-size="8pt" fill="#0000FF" text-anchor="end"     >label1 </text>      <polyline points="180 334.75 180 345.5 194.25 345.5 200 340 194.75 334.75 179.75 334.75" stroke="#430AFF" stroke-width="1"    fill="#FFF7F8"  stroke-linecap="round"    />  <g    xmlns="http://www.w3.org/2000/svg">           <text   x="234" y="332" font-family="Arial" font-size="7pt"  fill="#000080"    text-anchor="start"    >1k </text>           <text   x="234" y="323" font-family="Arial" font-size="7pt" fill="#000080"    text-anchor="start"    >R1 </text>      <polyline points="255 340 252 345" stroke="#A00000" stroke-width="1"    fill="none"  stroke-linecap="round"    />      <polyline points="247 335 242 345" stroke="#A00000" stroke-width="1"    fill="none"  stroke-linecap="round"    />      <polyline points="252 345 247 335" stroke="#A00000" stroke-width="1"    fill="none"  stroke-linecap="round"    />    <g c_partid="part_pin" c_etype="pinpart"  c_show="show"  c_elec="0" c_spicepin="2" c_origin="260 ,340"  id="0" c_rotation="0">    <path d="M 260 340 h -5" fill="none" stroke="#800"   stroke-width="1"/><circle cx="258" cy="340" r="3"  fill="none" stroke="#800" stroke-width="1" display="none" /><path d="M 255 337 L 252 340 L 255 343"   fill="none" stroke="#800" stroke-width="1" display="none" /></g>      <polyline points="233 345 228 335" stroke="#A00000" stroke-width="1"    fill="none"  stroke-linecap="round"    />      <polyline points="242 345 238 335" stroke="#A00000" stroke-width="1"    fill="none"  stroke-linecap="round"    />      <polyline points="238 335 233 345" stroke="#A00000" stroke-width="1"    fill="none"  stroke-linecap="round"    />      <polyline points="228 335 225 340" stroke="#A00000" stroke-width="1"    fill="none"  stroke-linecap="round"    />    <g c_partid="part_pin" c_etype="pinpart"  c_show="show"  c_elec="0" c_spicepin="1" c_origin="220 ,340"  id="0" c_rotation="180">    <path d="M 220 340 h 5" fill="none" stroke="#800"   stroke-width="1"/><circle cx="222" cy="340" r="3"  fill="none" stroke="#800" stroke-width="1" display="none" /><path d="M 225 343 L 228 340 L 225 337"   fill="none" stroke="#800" stroke-width="1" display="none" /></g></g>  <g    xmlns="http://www.w3.org/2000/svg">           <text   x="284" y="352.5" font-family="Arial" font-size="7pt"  fill="#000080"    text-anchor="start"    >KT1302 </text>           <text   x="284" y="343.5" font-family="Arial" font-size="7pt" fill="#000080"    text-anchor="start"    >Q1 </text>    <g c_partid="part_pin" c_etype="pinpart"  c_show="show"  c_elec="0" c_spicepin="3" c_origin="280 ,320"  id="0" c_rotation="90">    <path d="M 280 320 v 10" fill="none" stroke="#880000"   stroke-width="1"/><circle cx="280" cy="327" r="3"  fill="none" stroke="#0000FF" stroke-width="1" display="none" /><path d="M 277 330 L 280 333 L 283 330"   fill="none" stroke="#0000FF" stroke-width="1" display="none" /></g>    <g c_partid="part_pin" c_etype="pinpart"  c_show="show"  c_elec="0" c_spicepin="2" c_origin="260 ,340"  id="0" c_rotation="180">    <path d="M 260 340 h 10" fill="none" stroke="#880000"   stroke-width="1"/><circle cx="267" cy="340" r="3"  fill="none" stroke="#0000FF" stroke-width="1" display="none" /><path d="M 270 343 L 273 340 L 270 337"   fill="none" stroke="#0000FF" stroke-width="1" display="none" /></g>    <g c_partid="part_pin" c_etype="pinpart"  c_show="show"  c_elec="0" c_spicepin="1" c_origin="280 ,360"  id="0" c_rotation="270">    <path d="M 280 360 v -10" fill="none" stroke="#880000"   stroke-width="1"/><circle cx="280" cy="353" r="3"  fill="none" stroke="#0000FF" stroke-width="1" display="none" /><path d="M 283 350 L 280 347 L 277 350"   fill="none" stroke="#0000FF" stroke-width="1" display="none" /></g>      <polyline points="280 330 270 337" stroke="#880000" stroke-width="1"    fill="none"  stroke-linecap="round"    />      <polyline points="270 343 280 350" stroke="#880000" stroke-width="1"    fill="none"  stroke-linecap="round"    />      <polyline points="270 331 270 349" stroke="#880000" stroke-width="1"    fill="none"  stroke-linecap="round"    />    <polygon points="280 350 277 345 274 349"  stroke="#880000"  stroke-width="1"   fill="#880000" stroke-linecap="round" /></g>  <g    xmlns="http://www.w3.org/2000/svg">           <text   x="355" y="392.5" font-family="Arial" font-size="7pt"  fill="#000080"    text-anchor="start"    >2N7000 </text>           <text   x="355" y="383.5" font-family="Arial" font-size="7pt" fill="#000080"    text-anchor="start"    >Q2 </text>    <polygon points="330 380 336 382 336 378"  stroke="#880000"  stroke-width="1"   fill="#FEFEFE" stroke-linecap="round" />    <polygon points="350 378 347 383 353 383"  stroke="#880000"  stroke-width="1"   fill="#FEFEFE" stroke-linecap="round" />      <polyline points="330 373 340 373 340 370 350 370 350 378" stroke="#880000" stroke-width="1"    fill="none"  stroke-linecap="round"    />      <polyline points="330 380 340 380 340 390 350 390 350 383" stroke="#880000" stroke-width="1"    fill="none"  stroke-linecap="round"    />      <polyline points="340 387 330 387" stroke="#880000" stroke-width="1"    fill="none"  stroke-linecap="round"    />      <polyline points="328 371 328 389" stroke="#880000" stroke-width="1"    fill="none"  stroke-linecap="round"    />      <polyline points="330 371 330 375" stroke="#880000" stroke-width="1"    fill="none"  stroke-linecap="round"    />      <polyline points="330 382 330 378" stroke="#880000" stroke-width="1"    fill="none"  stroke-linecap="round"    />      <polyline points="330 389 330 385" stroke="#880000" stroke-width="1"    fill="none"  stroke-linecap="round"    />      <polyline points="320 380 328 380" stroke="#880000" stroke-width="1"    fill="none"  stroke-linecap="round"    />      <polyline points="353 377 352 378 348 378 347 379" stroke="#880000" stroke-width="1"    fill="none"  stroke-linecap="round"    />    <g c_partid="part_pin" c_etype="pinpart"  c_show="show"  c_elec="0" c_spicepin="2" c_origin="340 ,350"  id="0" c_rotation="90">    <path d="M 340 350 v 20" fill="none" stroke="#880000"   stroke-width="1"/><circle cx="340" cy="367" r="3"  fill="none" stroke="#0000FF" stroke-width="1" display="none" /><path d="M 337 370 L 340 373 L 343 370"   fill="none" stroke="#0000FF" stroke-width="1" display="none" /></g>    <g c_partid="part_pin" c_etype="pinpart"  c_show="show"  c_elec="0" c_spicepin="1" c_origin="300 ,380"  id="0" c_rotation="180">    <path d="M 300 380 h 20" fill="none" stroke="#880000"   stroke-width="1"/><circle cx="317" cy="380" r="3"  fill="none" stroke="#0000FF" stroke-width="1" display="none" /><path d="M 320 383 L 323 380 L 320 377"   fill="none" stroke="#0000FF" stroke-width="1" display="none" /></g>    <g c_partid="part_pin" c_etype="pinpart"  c_show="show"  c_elec="0" c_spicepin="3" c_origin="340 ,410"  id="0" c_rotation="270">    <path d="M 340 410 v -20" fill="none" stroke="#880000"   stroke-width="1"/><circle cx="340" cy="393" r="3"  fill="none" stroke="#0000FF" stroke-width="1" display="none" /><path d="M 343 390 L 340 387 L 337 390"   fill="none" stroke="#0000FF" stroke-width="1" display="none" /></g></g>    <polyline points="200 340 220 340" stroke="#008800" stroke-width="1"   fill="none" stroke-linecap="round"     />  <g  c_rotation="90"  xmlns="http://www.w3.org/2000/svg">           <text   x="287" y="432.5" font-family="Arial" font-size="7pt"  fill="#000080"    text-anchor="start"    >10k </text>           <text   x="287" y="423.5" font-family="Arial" font-size="7pt" fill="#000080"    text-anchor="start"    >R3 </text>      <polyline points="280 405 285 408" stroke="#A00000" stroke-width="1"    fill="none"  stroke-linecap="round"    />      <polyline points="275 413 285 418" stroke="#A00000" stroke-width="1"    fill="none"  stroke-linecap="round"    />      <polyline points="285 408 275 413" stroke="#A00000" stroke-width="1"    fill="none"  stroke-linecap="round"    />    <g c_partid="part_pin" c_etype="pinpart"  c_show="show"  c_elec="0" c_spicepin="2" c_origin="280 ,400"  id="0" c_rotation="90">    <path d="M 280 400 v 5" fill="none" stroke="#800"   stroke-width="1"/><circle cx="280" cy="402" r="3"  fill="none" stroke="#800" stroke-width="1" display="none" /><path d="M 277 405 L 280 408 L 283 405"   fill="none" stroke="#800" stroke-width="1" display="none" /></g>      <polyline points="285 427 275 432" stroke="#A00000" stroke-width="1"    fill="none"  stroke-linecap="round"    />      <polyline points="285 418 275 422" stroke="#A00000" stroke-width="1"    fill="none"  stroke-linecap="round"    />      <polyline points="275 422 285 427" stroke="#A00000" stroke-width="1"    fill="none"  stroke-linecap="round"    />      <polyline points="275 432 280 435" stroke="#A00000" stroke-width="1"    fill="none"  stroke-linecap="round"    />    <g c_partid="part_pin" c_etype="pinpart"  c_show="show"  c_elec="0" c_spicepin="1" c_origin="280 ,440"  id="0" c_rotation="270">    <path d="M 280 440 v -5" fill="none" stroke="#800"   stroke-width="1"/><circle cx="280" cy="438" r="3"  fill="none" stroke="#800" stroke-width="1" display="none" /><path d="M 283 435 L 280 432 L 277 435"   fill="none" stroke="#800" stroke-width="1" display="none" /></g></g>     <text x="269" y="447" font-family="Times New Roman,msyh" font-size="9pt" fill="#000080" text-anchor="start" display="none"    >GND </text>      <polyline points="280 470 280 460" stroke="#000000" stroke-width="1"    fill="none"  stroke-linecap="round"    />      <polyline points="270 470 289 470" stroke="#000000" stroke-width="1"    fill="none"  stroke-linecap="round"    />      <polyline points="274 472 287 472" stroke="#000000" stroke-width="1"    fill="none"  stroke-linecap="round"    />      <polyline points="276 474 283 474" stroke="#000000" stroke-width="1"    fill="none"  stroke-linecap="round"    />      <polyline points="279 476 281 476" stroke="#000000" stroke-width="1"    fill="none"  stroke-linecap="round"    />    <polyline points="280 440 280 460" stroke="#008800" stroke-width="1"   fill="none" stroke-linecap="round"     />    <polyline points="300 380 280 380" stroke="#008800" stroke-width="1"   fill="none" stroke-linecap="round"     />    <polyline points="280 360 280 400" stroke="#008800" stroke-width="1"   fill="none" stroke-linecap="round"     />    <circle cx="280" cy="380" r="2" fill="#CC0000"  stroke-width="1"/>  <g  c_rotation="90"  xmlns="http://www.w3.org/2000/svg">           <text   x="287" y="312.37" font-family="Arial" font-size="7pt"  fill="#000080"    text-anchor="start"    >1k </text>           <text   x="287" y="303.148" font-family="Arial" font-size="7pt" fill="#000080"    text-anchor="start"    >R2 </text>      <polyline points="280 285 285 288" stroke="#A00000" stroke-width="1"    fill="none"  stroke-linecap="round"    />      <polyline points="275 293 285 298" stroke="#A00000" stroke-width="1"    fill="none"  stroke-linecap="round"    />      <polyline points="285 288 275 293" stroke="#A00000" stroke-width="1"    fill="none"  stroke-linecap="round"    />    <g c_partid="part_pin" c_etype="pinpart"  c_show="show"  c_elec="0" c_spicepin="2" c_origin="280 ,280"  id="0" c_rotation="90">    <path d="M 280 280 v 5" fill="none" stroke="#800"   stroke-width="1"/><circle cx="280" cy="282" r="3"  fill="none" stroke="#800" stroke-width="1" display="none" /><path d="M 277 285 L 280 288 L 283 285"   fill="none" stroke="#800" stroke-width="1" display="none" /></g>      <polyline points="285 307 275 312" stroke="#A00000" stroke-width="1"    fill="none"  stroke-linecap="round"    />      <polyline points="285 298 275 302" stroke="#A00000" stroke-width="1"    fill="none"  stroke-linecap="round"    />      <polyline points="275 302 285 307" stroke="#A00000" stroke-width="1"    fill="none"  stroke-linecap="round"    />      <polyline points="275 312 280 315" stroke="#A00000" stroke-width="1"    fill="none"  stroke-linecap="round"    />    <g c_partid="part_pin" c_etype="pinpart"  c_show="show"  c_elec="0" c_spicepin="1" c_origin="280 ,320"  id="0" c_rotation="270">    <path d="M 280 320 v -5" fill="none" stroke="#800"   stroke-width="1"/><circle cx="280" cy="318" r="3"  fill="none" stroke="#800" stroke-width="1" display="none" /><path d="M 283 315 L 280 312 L 277 315"   fill="none" stroke="#800" stroke-width="1" display="none" /></g></g>     <text x="270" y="268" font-family="Times New Roman,msyh" font-size="9pt" fill="#000080" text-anchor="start"     >+12V </text>      <polyline points="280 270 280 280" stroke="#0000ff" stroke-width="1"    fill="none"  stroke-linecap="round"    />      <polyline points="275 270 285 270" stroke="#0000ff" stroke-width="1"    fill="none"  stroke-linecap="round"    />     <text x="329" y="447" font-family="Times New Roman,msyh" font-size="9pt" fill="#000080" text-anchor="start" display="none"    >GND </text>      <polyline points="340 470 340 460" stroke="#000000" stroke-width="1"    fill="none"  stroke-linecap="round"    />      <polyline points="330 470 349 470" stroke="#000000" stroke-width="1"    fill="none"  stroke-linecap="round"    />      <polyline points="334 472 347 472" stroke="#000000" stroke-width="1"    fill="none"  stroke-linecap="round"    />      <polyline points="336 474 343 474" stroke="#000000" stroke-width="1"    fill="none"  stroke-linecap="round"    />      <polyline points="339 476 341 476" stroke="#000000" stroke-width="1"    fill="none"  stroke-linecap="round"    />    <polyline points="340 410 340 460" stroke="#008800" stroke-width="1"   fill="none" stroke-linecap="round"     />     <text x="381.5" y="342" font-family="Times New Roman,msyh" font-size="8pt" fill="#0000FF" text-anchor="start"     >led- </text>      <polyline points="380 345.25 380 334.5 365.75 334.5 360 340 365.25 345.25 380.25 345.25" stroke="#430AFF" stroke-width="1"    fill="#FFF7F8"  stroke-linecap="round"    />    <polyline points="340 350 340 340 360 340" stroke="#008800" stroke-width="1"   fill="none" stroke-linecap="round"     />     <text x="381.5" y="312" font-family="Times New Roman,msyh" font-size="8pt" fill="#0000FF" text-anchor="start"     >led+ </text>      <polyline points="380 315.25 380 304.5 365.75 304.5 360 310 365.25 315.25 380.25 315.25" stroke="#430AFF" stroke-width="1"    fill="#FFF7F8"  stroke-linecap="round"    />     <text x="330" y="268" font-family="Times New Roman,msyh" font-size="9pt" fill="#000080" text-anchor="start"     >+12V </text>      <polyline points="340 270 340 280" stroke="#0000ff" stroke-width="1"    fill="none"  stroke-linecap="round"    />      <polyline points="335 270 345 270" stroke="#0000ff" stroke-width="1"    fill="none"  stroke-linecap="round"    />    <polyline points="340 280 340 310 360 310" stroke="#008800" stroke-width="1"   fill="none" stroke-linecap="round"     /></svg>
